<svg xmlns="http://www.w3.org/2000/svg" width="111.588" height="290.125" viewBox="0 0 111.588 290.125">
  <g id="Texture_left" data-name="Texture left" transform="translate(0)">
    <path id="Shape" d="M65.671,32.928A32.824,32.824,0,0,0,2.5,20.327,33,33,0,0,0,0,32.928H65.671Z" transform="translate(0 64.61)" fill="#7ab0fe"/>
    <path id="Shape-2" data-name="Shape" d="M0,65.679a33,33,0,0,0,12.6-2.5A32.932,32.932,0,0,0,23.281,56.06a32.837,32.837,0,0,0,7.137-10.654,32.761,32.761,0,0,0,0-25.134A32.836,32.836,0,0,0,23.281,9.618,32.932,32.932,0,0,0,12.6,2.5,33,33,0,0,0,0,0V65.679Z" transform="translate(0 0.178)" fill="#a5ddfe"/>
    <path id="Shape-3" data-name="Shape" d="M32.925,32.928a32.917,32.917,0,0,1-12.6-2.506A32.929,32.929,0,0,1,9.644,23.284,32.933,32.933,0,0,1,2.506,12.6,32.927,32.927,0,0,1,0,0H32.925Z" transform="translate(39.332 144.884)" fill="#ddd9fe"/>
    <path id="Shape-4" data-name="Shape" d="M0,0A32.917,32.917,0,0,1,12.6,2.506,32.929,32.929,0,0,1,23.281,9.645a32.933,32.933,0,0,1,7.137,10.683,32.927,32.927,0,0,1,2.506,12.6H0Z" transform="translate(0 105.192)" fill="#ddd9fe"/>
    <path id="Shape-5" data-name="Shape" d="M0,32.928A32.926,32.926,0,0,1,32.925,0V32.928Z" transform="translate(39.332 0.356)" fill="#a5ddfe"/>
    <path id="Shape-6" data-name="Shape" d="M0,16.464A16.463,16.463,0,0,1,16.462,0H32.925V32.928H16.462A16.463,16.463,0,0,1,0,16.464Z" transform="translate(0 144.884)" fill="#ddd9fe"/>
    <path id="Shape-7" data-name="Shape" d="M0,16.464A16.463,16.463,0,0,0,16.462,32.928H32.925V0H16.462A16.463,16.463,0,0,0,0,16.464Z" transform="translate(39.332 105.371)" fill="#ddd9fe"/>
    <ellipse id="Shape-8" data-name="Shape" cx="13.081" cy="13.082" rx="13.081" ry="13.082" transform="translate(46.094 39.692)" fill="#7ab0fe"/>
    <path id="Shape-9" data-name="Shape" d="M0,0A16.3,16.3,0,0,1,6.266,1.253a16.369,16.369,0,0,1,5.312,3.569,16.471,16.471,0,0,1,3.549,5.341,16.543,16.543,0,0,1,1.246,6.3,16.543,16.543,0,0,1-1.246,6.3,16.471,16.471,0,0,1-3.549,5.341,16.368,16.368,0,0,1-5.312,3.569A16.3,16.3,0,0,1,0,32.928Z" transform="translate(78.663 144.528)" fill="#aca4fe"/>
    <path id="Shape-10" data-name="Shape" d="M0,65.679V0A33,33,0,0,1,12.6,2.5,32.934,32.934,0,0,1,23.281,9.619a32.836,32.836,0,0,1,7.137,10.654,32.76,32.76,0,0,1,0,25.134A32.835,32.835,0,0,1,23.281,56.06,32.933,32.933,0,0,1,12.6,63.179,33,33,0,0,1,0,65.679Z" transform="translate(78.663 39.336)" fill="#849dfe"/>
    <path id="Shape-11" data-name="Shape" d="M32.925,16.464A16.463,16.463,0,0,1,16.462,32.928H0V0H16.462A16.463,16.463,0,0,1,32.925,16.464Z" transform="translate(78.663)" fill="#849dfe"/>
    <path id="Shape-12" data-name="Shape" d="M13.081,0A13.082,13.082,0,1,1,0,13.082,13.082,13.082,0,0,1,13.081,0Z" transform="translate(78.663 111.956)" fill="#aca4fe"/>
    <path id="Shape-13" data-name="Shape" d="M0,0H32.925V32.928a32.918,32.918,0,0,1-12.6-2.506A32.927,32.927,0,0,1,9.643,23.284,32.931,32.931,0,0,1,2.506,12.6,32.931,32.931,0,0,1,0,0Z" transform="translate(32.925 217.682)" fill="#909bfe"/>
    <path id="Shape-14" data-name="Shape" d="M0,0A32.995,32.995,0,0,1,12.6,2.5,32.935,32.935,0,0,1,23.281,9.619a32.838,32.838,0,0,1,7.137,10.654,32.76,32.76,0,0,1,0,25.134A32.838,32.838,0,0,1,23.281,56.06,32.935,32.935,0,0,1,12.6,63.179,32.995,32.995,0,0,1,0,65.679Z" transform="translate(72.256 184.932)" fill="#a5ddfe"/>
    <path id="Shape-15" data-name="Shape" d="M0,65.679V0A33,33,0,0,1,12.6,2.5,32.934,32.934,0,0,1,23.281,9.619a32.836,32.836,0,0,1,7.137,10.654,32.76,32.76,0,0,1,0,25.134A32.835,32.835,0,0,1,23.281,56.06,32.933,32.933,0,0,1,12.6,63.179,33,33,0,0,1,0,65.679Z" transform="translate(0 224.446)" fill="#a5ddfe"/>
    <path id="Shape-16" data-name="Shape" d="M32.925,16.464A16.463,16.463,0,0,1,16.462,32.928H0V0H16.462A16.463,16.463,0,0,1,32.925,16.464Z" transform="translate(0 184.932)" fill="#909bfe"/>
    <path id="Shape-17" data-name="Shape" d="M13.081,0A13.082,13.082,0,1,1,0,13.082,13.082,13.082,0,0,1,13.081,0Z" transform="translate(39.332 184.932)" fill="#909bfe"/>
  </g>
</svg>
